<svg width="24" height="24" viewBox="0 0 24 24" fill="none" xmlns="http://www.w3.org/2000/svg">
<path fill-rule="evenodd" clip-rule="evenodd" d="M4.57317 1.86718C6.18603 0.789503 8.08223 0.214294 10.022 0.214294V1.1254L10.0221 0.214294C12.6231 0.21446 15.1176 1.24781 16.9569 3.08705C18.7961 4.92629 19.8295 7.4208 19.8296 10.0219V10.0219C19.8296 11.9617 19.2544 13.8579 18.1768 15.4708C17.9876 15.7539 17.7844 16.0261 17.5682 16.2864L23.5199 22.2381C23.8739 22.5921 23.8739 23.1662 23.5199 23.5202C23.1658 23.8742 22.5918 23.8742 22.2378 23.5202L16.2861 17.5685C15.5338 18.193 14.6883 18.7048 13.7752 19.083C11.9831 19.8253 10.0111 20.0196 8.10862 19.6411C6.20613 19.2627 4.45857 18.3286 3.08695 16.957C1.71533 15.5854 0.781241 13.8378 0.402811 11.9353C0.024381 10.0328 0.218605 8.06083 0.960922 6.26871C1.70324 4.4766 2.96031 2.94486 4.57317 1.86718ZM10.022 2.02748C12.1422 2.02763 14.1755 2.86995 15.6748 4.36917C17.174 5.86839 18.0163 7.90172 18.0165 10.0219L10.022 2.02748ZM10.0219 2.02748C8.44081 2.02749 6.89518 2.49636 5.58052 3.37479C4.26584 4.25323 3.24117 5.50179 2.63609 6.96259C2.03101 8.42338 1.87269 10.0308 2.18116 11.5816C2.48963 13.1323 3.25102 14.5568 4.36907 15.6749C5.48711 16.7929 6.91159 17.5543 8.46236 17.8628C10.0131 18.1712 11.6206 18.0129 13.0813 17.4078C14.5421 16.8028 15.7907 15.7781 16.6691 14.4634C17.5476 13.1488 18.0164 11.6031 18.0165 10.022L10.0219 2.02748ZM9.96896 13.7407L12.8826 10.8783C13.0622 10.7054 13.2051 10.498 13.3028 10.2685C13.4004 10.0391 13.4507 9.79223 13.4507 9.54283C13.4507 9.29343 13.4004 9.0466 13.3028 8.81713C13.2051 8.58765 13.0622 8.38026 12.8826 8.20738C12.5204 7.8497 12.032 7.64914 11.5232 7.64914C11.0143 7.64914 10.5259 7.8497 10.1638 8.20738L9.96896 8.3971L9.77413 8.20651C9.41212 7.84888 8.92388 7.64835 8.41516 7.64835C7.90645 7.64835 7.41821 7.84888 7.0562 8.20651C6.87655 8.37939 6.73364 8.58678 6.63601 8.81625C6.53839 9.04573 6.48807 9.29256 6.48807 9.54196C6.48807 9.79136 6.53839 10.0382 6.63601 10.2677C6.73364 10.4971 6.87655 10.7045 7.0562 10.8774L9.96896 13.7407Z" fill="black"/>
</svg>
